<svg width="169" height="36" viewBox="0 0 169 36" fill="none" xmlns="http://www.w3.org/2000/svg">
<path d="M40.368 12.0229H35.538V9.00146H48.3392V12.0229H43.4994V25.92H40.368V12.0229Z" fill="black"/>
<path d="M57.9105 20.7691H48.5189C48.9423 22.6774 50.1978 23.6315 52.2854 23.6315C53.7384 23.6451 55.1587 23.1965 56.3448 22.3494L57.524 24.4763C55.9818 25.6299 54.1036 26.2339 52.1844 26.1933C50.0066 26.1933 48.3203 25.5224 47.1255 24.1806C46.0522 22.9896 45.5155 21.4938 45.5155 19.6932C45.5155 17.7998 46.1055 16.251 47.2855 15.0468C48.4951 13.8094 50.037 13.1907 51.9112 13.1907C53.6804 13.1907 55.1394 13.7555 56.2882 14.8853C57.437 16.015 58.0115 17.534 58.0115 19.4422C58.0042 19.8862 57.9705 20.3293 57.9105 20.7691ZM49.698 16.4556C49.0899 16.9915 48.6751 17.716 48.5189 18.5154H55.0967C55.0157 17.7214 54.6434 16.9867 54.0529 16.4556C53.4491 15.9502 52.6829 15.6851 51.8989 15.7102C51.1006 15.6853 50.3199 15.9498 49.698 16.4556Z" fill="black"/>
<path d="M69.1043 13.4888H71.9156V25.9125H69.1043V24.3869C68.6108 24.9727 67.9947 25.4408 67.3004 25.7575C66.6062 26.0742 65.8509 26.2315 65.0892 26.2181C64.2687 26.241 63.4529 26.085 62.6976 25.7609C61.9422 25.4367 61.265 24.9519 60.7121 24.3396C59.5633 23.089 58.9889 21.5244 58.9889 19.646C58.9889 17.7675 59.5633 16.2262 60.7121 15.0219C61.2739 14.4243 61.9539 13.9524 62.7079 13.637C63.4619 13.3215 64.2732 13.1695 65.0892 13.1907C65.8544 13.1843 66.6116 13.3495 67.3059 13.6743C68.0003 13.9992 68.6145 14.4756 69.1043 15.0691V13.4888ZM68.1516 17.0147C67.8103 16.6668 67.4041 16.3906 66.9564 16.2021C66.5087 16.0136 66.0284 15.9166 65.5434 15.9166C65.0583 15.9166 64.578 16.0136 64.1303 16.2021C63.6826 16.3906 63.2764 16.6668 62.9351 17.0147C62.2921 17.7605 61.938 18.7157 61.938 19.7044C61.938 20.693 62.2921 21.6483 62.9351 22.3941C63.2764 22.742 63.6826 23.0182 64.1303 23.2067C64.578 23.3951 65.0583 23.4922 65.5434 23.4922C66.0284 23.4922 66.5087 23.3951 66.9564 23.2067C67.4041 23.0182 67.8103 22.742 68.1516 22.3941C68.8317 21.6622 69.198 20.6888 69.1708 19.6857C69.1914 18.6949 68.8254 17.7356 68.1516 17.0147Z" fill="black"/>
<path d="M91.8758 14.5647C92.8146 15.5122 93.2881 16.8051 93.2963 18.4434V25.9199H90.3126V18.9826C90.3126 17.9887 90.0779 17.2184 89.6085 16.6718C89.3753 16.4109 89.0876 16.2056 88.7661 16.0707C88.4447 15.9358 88.0976 15.8746 87.7499 15.8916C87.3671 15.8794 86.9863 15.951 86.6336 16.1016C86.2808 16.2521 85.9646 16.478 85.7066 16.7637C85.1565 17.4016 84.8724 18.2298 84.914 19.0745V25.9199H81.9721V19.0049C81.9721 18.0458 81.726 17.2805 81.2336 16.7165C81.002 16.4448 80.7125 16.2295 80.3868 16.0866C80.0611 15.9438 79.7076 15.8771 79.3528 15.8916C78.97 15.8794 78.5892 15.951 78.2365 16.1016C77.8837 16.2521 77.5675 16.478 77.3096 16.7637C76.7484 17.4053 76.4563 18.2419 76.4947 19.0969V25.9199H73.5406V13.4963H76.443V15.2828C76.7979 14.6201 77.3381 14.0774 77.9964 13.7224C78.6675 13.3401 79.4266 13.143 80.1972 13.1509C81.9795 13.1807 83.2038 13.9212 83.8702 15.3722C84.8073 13.8913 86.2843 13.1509 88.3013 13.1509C88.9611 13.1287 89.6184 13.2427 90.233 13.4858C90.8476 13.7289 91.4066 14.096 91.8758 14.5647Z" fill="black"/>
<path d="M29.3025 32.0158C28.7937 32.4083 28.2661 32.7752 27.7195 33.1165C28.2119 32.7852 28.6796 32.4357 29.1228 32.0679L29.2754 31.9387L29.3025 32.0158Z" fill="#6DA0FC"/>
<path d="M20.2628 15.8228C19.6824 16.4022 18.9448 16.7949 18.1432 16.9511C17.3417 17.1073 16.5122 17.0199 15.7599 16.7001C15.0075 16.3804 14.366 15.8425 13.9166 15.1546C13.4673 14.4667 13.2301 13.6597 13.2353 12.8358C13.2405 12.0118 13.4877 11.2079 13.9457 10.5259C14.4037 9.84378 15.0518 9.31416 15.8082 9.00402C16.5645 8.69388 17.395 8.61716 18.1945 8.78358C18.994 8.95 19.7267 9.35207 20.2997 9.93891C21.0675 10.7243 21.4949 11.7852 21.488 12.8885C21.4811 13.9919 21.0404 15.0473 20.2628 15.8228Z" fill="#6DA0FC"/>
<path d="M28.1527 28.798C28.1133 28.6564 28.0715 28.5147 28.0272 28.3756C26.3611 30.0418 24.314 31.2682 22.0668 31.9462C19.8196 32.6242 17.4416 32.7331 15.1428 32.2631C12.8441 31.7931 10.6954 30.7588 8.88675 29.2516C7.0781 27.7444 5.66517 25.8107 4.77283 23.6214C3.8805 21.4321 3.53625 19.0547 3.7705 16.6992C4.00475 14.3437 4.81029 12.0827 6.11593 10.1161C7.42156 8.14951 9.18708 6.53782 11.2564 5.42349C13.3258 4.30917 15.6353 3.72654 17.9807 3.72709H18.0201L16.5184 0L16.3609 0.0173931C12.8029 0.482148 9.44573 1.94568 6.67133 4.24143L6.6344 4.27125C4.79797 5.75232 3.27304 7.58861 2.14907 9.67242C1.0251 11.7562 0.324711 14.0456 0.0889931 16.4062C-0.146725 18.7669 0.0869712 21.1513 0.776373 23.4196C1.46578 25.6878 2.597 27.7943 4.1037 29.6155C4.52656 30.127 4.97779 30.614 5.45521 31.074C5.74898 31.354 6.05096 31.6248 6.36115 31.8865L6.3833 31.9039C9.08875 34.1631 12.3975 35.5614 15.8907 35.9217H15.9325L16.0999 35.9341C20.163 36.2744 24.227 35.2903 27.6948 33.1264L27.7244 33.109C28.2167 32.7777 28.6845 32.4282 29.1276 32.0604L29.2802 31.9312L28.1527 28.798Z" fill="#6DA0FC"/>
<path d="M26.6536 25.4784C25.9015 26.383 25.0155 27.165 24.0269 27.7967C21.9839 29.1038 19.5791 29.7145 17.1664 29.5387C14.7538 29.3629 12.4608 28.41 10.625 26.8202C9.74019 26.0514 8.97796 25.1496 8.36511 24.1466C9.54399 22.8095 11.0116 21.7639 12.6545 21.0903C14.2975 20.4168 16.0718 20.1335 17.8406 20.2622C19.6093 20.3909 21.325 20.9282 22.8552 21.8327C24.3855 22.7371 25.6893 23.9845 26.6659 25.4784H26.6536Z" fill="#6DA0FC"/>
<path d="M29.3025 32.0158C28.7937 32.4083 28.2661 32.7752 27.7195 33.1165C28.2119 32.7852 28.6796 32.4357 29.1228 32.0679L29.2754 31.9387L29.3025 32.0158Z" fill="#6DA0FC"/>
<path d="M110.31 13.3523H112.434V25.7237H110.31V23.9696C109.202 25.339 107.748 26.0238 105.948 26.0238C104.163 26.0238 102.686 25.3929 101.516 24.1311C100.347 22.8694 99.7623 21.3076 99.7623 19.4457C99.7623 17.5838 100.347 16.0605 101.516 14.8757C102.686 13.6601 104.163 13.0523 105.948 13.0523C107.702 13.0523 109.156 13.7524 110.31 15.1527V13.3523ZM110.449 19.5149C110.449 18.2686 110.056 17.2222 109.272 16.3759C108.487 15.5143 107.464 15.0834 106.202 15.0834C104.94 15.0834 103.925 15.5143 103.155 16.3759C102.386 17.2376 102.001 18.2917 102.001 19.538C102.001 20.7844 102.386 21.8384 103.155 22.7001C103.925 23.5618 104.94 23.9926 106.202 23.9926C107.464 23.9926 108.487 23.5618 109.272 22.7001C110.056 21.8384 110.449 20.7767 110.449 19.5149Z" fill="black"/>
<path d="M124.897 8.25146H127.113V25.7237H124.897V23.9926C123.82 25.3467 122.389 26.0238 120.604 26.0238C118.804 26.0238 117.311 25.4006 116.126 24.1542C114.957 22.8924 114.372 21.346 114.372 19.5149C114.372 17.6992 114.957 16.1759 116.126 14.9449C117.296 13.6832 118.773 13.0523 120.558 13.0523C122.327 13.0523 123.774 13.7524 124.897 15.1527V8.25146ZM125.059 19.5149C125.059 18.2686 124.666 17.2222 123.882 16.3759C123.112 15.5143 122.097 15.0834 120.835 15.0834C119.573 15.0834 118.55 15.5143 117.765 16.3759C116.996 17.2376 116.611 18.284 116.611 19.5149C116.611 20.7767 116.996 21.8384 117.765 22.7001C118.55 23.5618 119.573 23.9926 120.835 23.9926C122.097 23.9926 123.112 23.5618 123.882 22.7001C124.666 21.8384 125.059 20.7767 125.059 19.5149Z" fill="black"/>
<path d="M144.103 13.0292C145.61 13.0292 146.811 13.5139 147.703 14.4833C148.596 15.4219 149.042 16.7145 149.042 18.3609V25.7237H146.826V18.7071C146.826 17.5531 146.565 16.6606 146.041 16.0297C145.503 15.3988 144.772 15.0834 143.849 15.0834C142.879 15.0834 142.087 15.4219 141.471 16.099C140.856 16.776 140.548 17.6608 140.548 18.7533V25.7237H138.355V18.7533C138.355 17.5992 138.086 16.6991 137.548 16.0528C137.009 15.4065 136.278 15.0834 135.355 15.0834C134.385 15.0834 133.593 15.4219 132.978 16.099C132.347 16.7914 132.031 17.6915 132.031 18.7994V25.7237H129.815V13.3523H131.985V15.1757C132.77 13.7139 134.016 12.9984 135.724 13.0292C136.57 13.0292 137.34 13.2292 138.032 13.6293C138.755 14.0448 139.279 14.6141 139.602 15.3373C140.017 14.6295 140.633 14.0678 141.448 13.6524C142.248 13.2369 143.133 13.0292 144.103 13.0292Z" fill="black"/>
<path d="M153.296 11.5982C152.834 11.5982 152.45 11.4443 152.142 11.1366C151.834 10.8442 151.68 10.4672 151.68 10.0056C151.68 9.55938 151.834 9.19009 152.142 8.89773C152.45 8.60537 152.834 8.45919 153.296 8.45919C153.727 8.45919 154.096 8.61307 154.404 8.92081C154.711 9.21317 154.865 9.57477 154.865 10.0056C154.865 10.4672 154.711 10.8442 154.404 11.1366C154.096 11.4443 153.727 11.5982 153.296 11.5982ZM154.358 25.7237H152.142V13.3523H154.358V25.7237Z" fill="black"/>
<path d="M157.203 25.7237V13.3523H159.372V15.1065C160.157 13.7216 161.465 13.0292 163.296 13.0292C164.681 13.0292 165.843 13.4754 166.781 14.3679C167.72 15.2604 168.189 16.5452 168.189 18.2224V25.7237H165.997V18.8456C165.997 17.6608 165.704 16.7298 165.119 16.0528C164.55 15.4065 163.788 15.0834 162.834 15.0834C161.834 15.0834 161.011 15.4373 160.365 16.1451C159.734 16.8683 159.418 17.7762 159.418 18.8687V25.7237H157.203Z" fill="black"/>
</svg>
